<?xml version="1.0" encoding="UTF-8" standalone="no"?>
<!-- Generator: Adobe Illustrator 21.0.0, SVG Export Plug-In . SVG Version: 6.00 Build 0)  -->

<svg
   xmlns:dc="http://purl.org/dc/elements/1.1/"
   xmlns:cc="http://creativecommons.org/ns#"
   xmlns:rdf="http://www.w3.org/1999/02/22-rdf-syntax-ns#"
   xmlns:svg="http://www.w3.org/2000/svg"
   xmlns="http://www.w3.org/2000/svg"
   xmlns:sodipodi="http://sodipodi.sourceforge.net/DTD/sodipodi-0.dtd"
   xmlns:inkscape="http://www.inkscape.org/namespaces/inkscape"
   version="1.1"
   id="greenflag"
   x="0px"
   y="0px"
   viewBox="0 0 24 24"
   style="enable-background:new 0 0 24 24;"
   xml:space="preserve"
   sodipodi:docname="green-flag-inactive.svg"
   inkscape:version="0.92.3 (2405546, 2018-03-11)"><metadata
   id="metadata15"><rdf:RDF><cc:Work
       rdf:about=""><dc:format>image/svg+xml</dc:format><dc:type
         rdf:resource="http://purl.org/dc/dcmitype/StillImage" /><dc:title>greenflag</dc:title></cc:Work></rdf:RDF></metadata><defs
   id="defs13" /><sodipodi:namedview
   pagecolor="#ffffff"
   bordercolor="#666666"
   borderopacity="1"
   objecttolerance="10"
   gridtolerance="10"
   guidetolerance="10"
   inkscape:pageopacity="0"
   inkscape:pageshadow="2"
   inkscape:window-width="716"
   inkscape:window-height="480"
   id="namedview11"
   showgrid="false"
   inkscape:zoom="9.8333333"
   inkscape:cx="12"
   inkscape:cy="12"
   inkscape:window-x="2422"
   inkscape:window-y="228"
   inkscape:window-maximized="0"
   inkscape:current-layer="greenflag" />
<style
   type="text/css"
   id="style2">
	.st0{fill:#45993D;}
	.st1{fill:#4CBF56;}
</style>
<title
   id="title4">greenflag</title>
<path
   class="st0"
   d="M20.8,3.7c-0.4-0.2-0.9-0.1-1.2,0.2c-2,1.6-4.8,1.6-6.8,0c-2.3-1.9-5.6-2.3-8.3-1V2.5c0-0.6-0.5-1-1-1  s-1,0.4-1,1v18.8c0,0.5,0.5,1,1,1h0.1c0.5,0,1-0.5,1-1v-6.4c1-0.7,2.1-1.2,3.4-1.3c1.2,0,2.4,0.4,3.4,1.2c2.9,2.3,7,2.3,9.8,0  c0.3-0.2,0.4-0.5,0.4-0.9V4.7C21.6,4.2,21.3,3.8,20.8,3.7z M20.5,13.9C20.5,13.9,20.5,13.9,20.5,13.9C18,16,14.4,16,11.9,14  c-1.1-0.9-2.5-1.4-4-1.4c-1.2,0.1-2.3,0.5-3.4,1.1V4C7,2.6,10,2.9,12.2,4.6c2.4,1.9,5.7,1.9,8.1,0c0.1,0,0.1,0,0.2,0  c0,0,0.1,0.1,0.1,0.1L20.5,13.9z"
   id="path6" />
<path
   class="st1"
   d="M20.6,4.8l-0.1,9.1c0,0,0,0.1,0,0.1c-2.5,2-6.1,2-8.6,0c-1.1-0.9-2.5-1.4-4-1.4c-1.2,0.1-2.3,0.5-3.4,1.1V4  C7,2.6,10,2.9,12.2,4.6c2.4,1.9,5.7,1.9,8.1,0c0.1,0,0.1,0,0.2,0C20.5,4.7,20.6,4.7,20.6,4.8z"
   id="path8"
   style="fill:#308637;fill-opacity:1" />
</svg>