<?xml version="1.0" encoding="UTF-8" standalone="no"?>
<!DOCTYPE svg PUBLIC "-//W3C//DTD SVG 1.1//EN" "http://www.w3.org/Graphics/SVG/1.1/DTD/svg11.dtd" [
<!ENTITY ns_svg "http://www.w3.org/2000/svg">
	<!ENTITY ns_xlink "http://www.w3.org/1999/xlink">
]>
<svg enable-background="new 0 0 272.668 392.75" height="392.75" viewBox="0 0 272.668 392.75" width="272.67" xml:space="preserve" xmlns="http://www.w3.org/2000/svg">
<g fill-rule="evenodd">
	<path d="m142,23.241c3.631,2.494 4.206,8.146 4,11.333-2.96-2.991-2.01-10.97-4-11.333z" fill="#f8ed9b"></path>
	<path d="m129.33,24.575h2c-.864,2.474 2.015,2.475 1.333,6-3.68-.336-3.5-2.167-3.33-6z" fill="#f8ed9b"></path>
	<path d="m146,58.575c-.376,2.455 1.339,6.929-4,8 2.069-2.639-.044-4.634-.667-8 2.45.417 3.32-.309 4.67,0z" fill="#f8ed9b"></path>
	<path d="m138,59.241c-2.303,1.587-2.921.952-6.667,1.333 1.15-1.426 5.27-2.249 6.67-1.333z" fill="#f8ed9b"></path>
	<path d="m112,61.241c1.31-2.625 2.671-1.619 6.667-2-.1,3.975-1.014,5.128 0,9.333-.593-.41-1.192-.806-1.333,0-3.1-2.365-2.4-8.117-5.34-7.333z" fill="#f8ed9b"></path>
	<path d="m126,79.241c-1.592,1.927-6.568-.557-6,2-5.119.132-3.772-2.743-9.333-2.667 4.92-1.759 11.21-3.695 15.33.667z" fill="#f8ed9b"></path>
	<path d="m104.67,79.241c-2.726,1.05-8.611,2.97-9.333,5.333-5.39,1.219-10.533,2.629-12.667,8-1.359-1.164-1.307.497-2.667-.667 .721-4.281 5.988-7.191 8.667-7.333v-2c3.896.865 9.771-6.039 16-3.333z" fill="#f8ed9b"></path>
	<path d="m118.67,88.575c2.409,1.544-.654,2.185 0,5.333-1.971-.964-.575-1.489-1.333-4 .59-.296 1.19-.586 1.33-1.333z" fill="#f8ed9b"></path>
	<path d="m126.67,88.575c1.991,2.139 2.517,7.074 0,10-.536-.353-1.082-.696-2-.667 1.35-3.79 1.65-5.08 2-9.333z" fill="#f8ed9b"></path>
	<path d="m112,89.908c.96.151.232,1.99 1.333,2-.69,2.017-2.644,2.293-3.333,2.667-1.39-1.007 1.68-3.167 2-4.667z" fill="#f8ed9b"></path>
	<path d="m54,90.575c1.696.067 1.575,2.484.667,3.333-1.835-.828-1.025-1.939-.667-3.333z" fill="#f8ed9b"></path>
	<path d="m219.33,90.575c1.074.996 3.603-.834 3.334,2.667-2.27.278-3.79-.202-3.33-2.667z" fill="#f8ed9b"></path>
	<path d="m96,91.241c2.867.968 2.391,7.122 2,9.333-3.528-1.967-3.844-5.128-2-9.329z" fill="#f8ed9b"></path>
	<path d="m88.667,92.575c3.009,3.917 1.357,7.202 3.333,13.333-4.378-.733-2.235-7.987-4.667-10.667 .009-1.326 1.819-.849 1.334-2.668z" fill="#f8ed9b"></path>
	<path d="m224.67,93.241c.987,1.179 3.445-1.252 3.333,2-.99.998-3.44.062-3.33-2z" fill="#f8ed9b"></path>
	<path d="m44,93.908c1.168.609 2.316,1.24 2,3.333h-2.667c.754-2.093-.191-1.761.667-3.333z" fill="#f8ed9b"></path>
	<path d="m70.667,115.24c7.007.014 7.544-4.646 7.333-8.667-2.943.947-.201-3.756-3.333-2.667-.282-1.393.457-1.765.667-2.667 .593.518 1.505.717 2.667.667 .123.567-.26.629-.667.667 3.23,1.716.162,4.05 2.667,5.333-2.237,1.129-.131,3.595-.667,4.667-2.008,4.017-8.588,5.655-10.667,4.667-1.449-.688-7.044-5.036-1.333-6 .123.567-.26.629-.667.667 .108.781 1.216.562 2,.667-1.676,2.19 1.672-.14 2,2.66z" fill="#f8ed9b"></path>
	<path d="m33.333,106.58c-.112-1.446 2.364-.302 3.333-.667v2.667c-1.546.212-2.56-.107-3.333-.667 .41-.6.806-1.19 0-1.33z" fill="#f8ed9b"></path>
	<path d="m57.333,113.91c4.094,5.49-8.02,12.774-3.333,18.667-3.083,1.76-3.379,3.839-6,8-2.809-2.726 3.179-12.275 2.667-15.333 .108-.781 1.216-.562 2-.667-1.282-3.4 3.429-7.28 4.666-10.67z" fill="#f8ed9b"></path>
	<path d="m61.333,121.91c6.338,7.956-1.994,16.906-6.667,18.667-1.445.112-.302-2.365-.667-3.333 11.282-2.66 4.668-10.07 7.334-15.34z" fill="#f8ed9b"></path>
	<path d="m50,159.24c-1.249,2.529-.947,6.608-5.333,6 1.615-3.48 2.151-5.1 5.333-6z" fill="#f8ed9b"></path>
	<path d="m231.33,178.58c2.443,1.847-2.084,2.307-2.666,3.333-1.173,6.346-2.581,8.796-.667,13.333 2.52-.075 3.585,1.305 4,3.333h-4c-.123-.566.26-.629.667-.666-.108-.781-1.216-.562-2-.667-2.297-6.066-.331-11.761 1.333-17.333 .54-2.05 3.14-.33 3.34-1.32z" fill="#f8ed9b"></path>
	<path d="m236.67,183.91c2.233,5.73 2.394,12.853 2,16.667-1.07-4.38-3.69-10.53-2-16.67z" fill="#f8ed9b"></path>
	<path d="m32,205.91c11.236.194 6.688,12.418 4.667,19.333-2.076.006-4.344,1.576-6,0 4.535-2.16 7.329-7.756 6-14.667-.737-1.707-3.58-1.309-6-1.333 .744-1.55-.143-1.78 1.333-3.33z" fill="#f8ed9b"></path>
	<path d="m52.667,272.57c-.346-1.253-6.128-.019-7.333-.666 1.275-2.245 2.831-3.181 4.667-3.334 3.611,1.723 6.116,4.552 8,8-.825,2.81-6.771-2.51-5.334-4z" fill="#f8ed9b"></path>
	<path d="m57.333,280.57c.593.41 1.192.806 1.333,0 2.338.182-1.204,2.952.667,2.667-1.149,2.484-4.684,1.961-4,4.667h-3.333c.41-.594.806-1.192 0-1.334 2.629-1.15 4.072-3.49 5.333-6.01z" fill="#f8ed9b"></path>
	<path d="m194.67,300.57c-1.629-1.689-1.421,1.405-4,.667-.429,2.967-.654,7.062-2,12-1.527-1.14-1.577-3.757-2-6 1.99-3.31 3.24-11.2 8-6.67z" fill="#f8ed9b"></path>
	<path d="m87.333,302.57c1.172.161 1.52,1.147 1.333,2.667-2.853,1.558-3.698,3.354-7.333,5.333-1.665-3.55 3.465-5.16 6-8z" fill="#f8ed9b"></path>
	<path d="m172.67,315.24c-1.862-.378-1.623-2.442-2-5.333h2c.598,4.583 2.335,5.24 2,10-1.196.084-1.406-.816-2.667-.667 1.28-1.66-1.02-2.74.67-4z" fill="#f8ed9b"></path>
	<path d="m66.667,312.57c4.54-.762 4.524,3.032 8,3.334-1.236,3.57-6.959-.61-8-3.33z" fill="#f8ed9b"></path>
	<path d="m143.33,312.57c1.678,5.242 5.437,4.311 6.667,10-.96,1.476-1.627-.839-2,.667-.802-4.347-8.62-11.793-10-5.333-1.524.697-2.362,2.082-4.667,2 .57-6.18 4.71-7.33 10-7.34z" fill="#f8ed9b"></path>
	<path d="m99.333,313.91c1.259.073.462,2.204 2,2-1.855,2.402-.812,3.598-2.667,6-1.977-2.24.376-5.82.67-8z" fill="#f8ed9b"></path>
	<path d="m128,336.57c-1,.778-1.63,1.926-3.333,2-1.58-2.78 1.13-3 3.33-2z" fill="#f8ed9b"></path>
	<path d="m136,7.241c1.154-.204 6.513,2.739 7.333,2.667 3.963,4.012 1.709,10.347 5.334,14-1.111,5.065 6.063,12.014 3.333,16.667 4.896,3.749-2.794,19.168 1.333,20.667-.391,1.387-1.4,2.155-2,3.333 1.282,1.663-1.017,2.739.667,4-4.503,7.626 2.75,6.131 6,6.667 8.957,1.476 20.752-.274 30.667,7.333 3.628,2.783 2.808,7.009 10,6.667 5.604,2.042 19.54-9.64 28,0 .969-2.894 7.536,4.625 10.666,4 4.706,7.7 6.274-5.032 12-5.333 4.899-.257 13.293,5 16.667,4.667 .569,1.208 1.717,1.838 2,3.333-1.036-1.257-2.598.957-4-.667 3.52,5.488 8.744,1.327 8.667,10-4.23-.42-2.273-3.924-8-2.667v3.333c3.154,1.061 5.394,4.422 3.333,6-.623.478-6.782-1.496-10,.667-1.404.944-2.521,2.426-2.667,4.667-1.884.993-4.239-.037-6-2-.122.567.261.629.667.667-2.269-1.458-18.392,2.227-20-4.667-1.44.348-11.183-7.494-12.667-1.333-.153.637 5.648,10.401 6.667,12 .385.605 1.003.698 2,.667 1.207,6.955 2.842,14.912 7.333,26 .108.781 1.216.562 2,.667 1.344,8.069.111,16.042 2.667,25.333 .373,1.506 1.04-.809 2,.667 1.237,10.703 3.982,14.684 3.333,20.667-4.633,5.88.814,8.517 0,15.333 1.145-1.963 2.706,4.172-.666,4 .181,1.57 2.952.407 2.666-.667 .702,6.313.553,14.014-.666,20-.21,1.032-4.369,11.248 0,14.667-3.076,4.254-1.314,10.227-1.334,13.333-2.985,2.028-3.379,6.571-3.333,8.667-1,.778-1.63,1.926-3.333,2 .728,3.998-5.436,6.184-4.667,11.333-2.528-.538-.922,4.522-4,4 1.172,5.122-7.341,9.033-5.333,15.334 3.828-1.229 2.291,1.513 3.333,2 3.256,1.522 13.892-3.27 16.667,3.333-.573-2.56 8.413,2.646 9.333,2.667 4.363,4.478-2.39,5.762-6.667,1.333-2.503,1.149.096,3.518-1.333,4.667 1.14,1.526 3.757,1.576 6,2-.71,1.072.167,1.949 2.667,2.666-.426,2.058 1.635,3.836 1.333,5.334-.609.743-1.239.21-3.333.666 .853-3.52-2.548-2.786-2.667-5.333-2.052-.496-1.281,1.83-3.333,1.333-.034,4.762-1.606,3.715 0,8 2.509-1.987-.624,2.165 2.666,2 .744,3.312-.219,5.388 0,6.667-1.083,2.516-2.164-3.935-2.666-2-.312-1.498-.363-3.275-2.667-5.333-2.546,3.023-5.833,2.021-8.667,5.333 .712.622.208,2.459 2,2-1.352,3.35-3.9,1.398-5.333,4.667-1.796-1.081-8.468.993-9.333-4-1.774.537-3.066-1.152-2.667-.667-3.842-4.666-7.918-2.961-10.667-4.667-4.115-2.554-2.47-5.438-6-8 2.068-5.273-2.213-5.106-.666-8-8.383,1.086-8.32,4.072-17.334,4-6.92,7.932-16.595,14.312-25.333,9.334-2.285-1.303-4.815,2.499-8,4-5.976,2.815-11.251-.142-16,2 .398,9.28.32,19.102 2,28.666 .165.936.767.121.667,0 2.143,2.591-.197,6.26.667,9.334 .345,1.225 1.906,1.446 2,2 .18,1.051-1.323-.154-1.333,0-.068,1.063 2.206,9.261 2,8.666 .702,2.023.396,2.204.667,4-8.719,1.395-6.145-5.908-10-8 .841-.782.535-2.77-1.333-2.666-.183-7.162-2.792-9.487-3.333-20-.459-.153-.769.299-.667.666-2.636-9.465-2.903-14.612-4.667-26-7.487,1.896-14.665-2.938-19.333-4 .282-1.394-.457-1.765-.667-2.666-6.449,4.649-14.077-3.371-19.333-2-.39.102-1.5-1.267-1.333-1.334-1.987.804-1.036,4.268 0,5.334 3.064,8-4.408,9.854-5.333,14-.672,3.011 1.859,5.07 0,8.666-1.271-1.251-1.206.396-3.333,0 .244,3.692.034,3.874.667,6.667-2.316,1.847-7.096,3.039-8,4-1.168-.609-2.316-1.239-2-3.333-4.572.13-1.329,3.97-7.333,2.666-3.119,2.703 2.215,9.18-.667,12-4.95-.754-5.813-7.368-4-12.666-1.624-2.457-4.077-2.157-7.333-4-1.916.921-.96,3.078-.667,4 .629,1.232-3.815.409-1.333,1.333-5.459,1.437-1.831-5.203-.667-9.333 1.325-4.701-2.686-11.13-4.667-11.334-3.604-.37.476,4.679-3.333,5.334 2.218-.433 1.31,0 2,2-1.454.108-1.936,2.503-3.333,1.333-5.28-4.424 5.846-19.488 10.667-24 1.395,1.184 2.505-.524 3.333.667 3.965-2.933 1.797-8.284 7.333-10 1.208-3.422-1.492-5.018 2-5.334-2.481-6.501.721-7.134-2.667-13.333-5.033-1.382-13.289-9.571-13.333-14-2.101,2.162-.281-2.544-3.333-1.333 .13-1.864 1.694-4.121-1.333-5.334 1.854-5.474-8.039-12.701-7.333-18-.107-.781-1.215-.562-2-.666 .667-1.615.877-2.948-1.333-4 1.856-1.193.595.473 0-1.334-2.616-7.945.396-25.456-1.333-34.666-.704-3.75.534-10.99-.667-14 4.815-7.706 3.621-16.856 6.667-22-.538-.123-.667.26-.667.667-.005-4.551 3.174-10.086 5.333-17.333 4.315-.024.979-5.309 4.667-5.333-.09-9.026 5.271-17.035 8-26.667 .698-2.462.719-4.766 1.333-7.333 0,.001 1.299.816 1.333.667 .36-1.558 1.728-7.148 3.333-10 2.385-4.238 9.236-10.026-.667-10.667-2.124,2.157-11.308,8.194-13.333,2.667-6.81,2.106-13.468,8.627-20.667.667-4.935,1.834-2.448,8.049-5.333,9.333-1.486.662-.546-4.752-2-.667-1.326-.451.659-2.215-.667-2.667 .107-.781 1.215-.562 2-.667-1.346-2.09.484-5.886 3.333-7.333 .396-2.127-1.251-2.062 0-3.333-2.696-3.31-7.156-.349-9.333,3.333h-4c.462-1.175.736-2.064 0-2.667 1.812-.834 2.011-3.267 5.333-6 1.829-1.505 8.315-1.715 4-4-.946-.501-1.952,2.067-4,.667v-2c2.281.331 2.601-2.684 2.652-3.359 3.405-3.012 6.523.595 8-.667 1.309-1.117-.537-2.896 0-3.333 2.673-2.176 4.959-1.145 9.333,0 4.826-4.683 6.004-.12 9.333,2-.36-.229 3.591-1.537 1.333-.667 5.402-2.082 11.005-4.843 16-7.333 9.56-.534 14.264,5.888 21.333,9.333 1.181-.34 4.085-4.365 2.667-1.333 2.668.497 2.256-4.136 2.667-4.667 2.513-3.246 13.579-11.079 14.667-10.667 3.349,1.268 11.838-4.115 17.333-.667 1.915-5.005-4.288-13.116-2-19.333-1.897.781-.634-1.483-.667-2-.348-5.621-1.933-12.004 1.333-21.333 .882-2.52 2.966-4.308 3.333-6.667 .291-1.863-1.062-4.068-.667-6.667 .575-3.787 3.683-6.645 4.667-10 2.054,1.402 3.349-2.564 6.667-2v-3.333c2.526-1.229 6.724-7.092 10-3.333 .83,1.127 3.33,4.146 2.67,6zm10,27.334c.206-3.188-.369-8.839-4-11.333 1.99.362 1.04,8.341 4,11.333zm-32,1.333c.141-.806.74-.41 1.333,0 1.118-4.345 3.894-9.868.667-10.667-.06,3.748-3.7,8.396-2,10.667zm18.67-5.333c.682-3.525-2.197-3.526-1.333-6h-2c-.18,3.833-.36,5.664 3.33,6zm-7.34,4.666c.038-.407.1-.789.667-.667 .365.969-.779,3.446.667,3.333 .446-3.112-1.072-4.261-2-6-1,1.395.66,2.507.66,3.334zm9.34,4c1.193-1.251 2.381-2.508 3.333-4-.881-.008-.609-1.168-1.333-1.333 2.2,2.626-3.64,3.592-2,5.333zm3.33,18c.858-.213 3.313-.554 6-.667 2.222-2.604-1.456-9.156-1.333-11.333-1.357-.198-1.776-1.335-2.667-2-.56,5.29-1.94,8.46-2,14zm-18-12.666c-3.899,4.939-4.846,17.377 3.333,12.667-.307-3.953.305-4.713-2-6.667 .563-1.601.563-4.4 0-6-.14.805-.74.409-1.33,0zm21.33,14c.623,3.366 2.736,5.361.667,8 5.339-1.071 3.624-5.545 4-8-1.35-.309-2.22.417-4.67,0zm-10,2c3.746-.382 4.364.253 6.667-1.333-1.4-.917-5.52-.094-6.67,1.333zm-14,8c.141-.806.74-.41 1.333,0-1.014-4.206-.1-5.359 0-9.333-3.996.381-5.357-.625-6.667,2 2.95-.785 2.25,4.967 5.34,7.333zm-6.66,10c5.561-.077 4.214,2.798 9.333,2.667-.568-2.557 4.408-.073 6-2-4.12-4.363-10.41-2.427-15.33-.667zm47.33,1.333c1.104-3.054-3.237-2.106-4-1.333-7.501-3.621-19.302,1.157-26-2-.396,2.127 1.251,2.062 0,3.333 18.2,1.634 12.81.312 30,0zm-69.333,2.667v2c-2.679.142-7.945,3.052-8.667,7.333 1.359,1.164 1.307-.497 2.667.667 2.134-5.371 7.277-6.781 12.667-8 .722-2.364 6.607-4.284 9.333-5.333-6.229-2.707-12.104,4.197-16.003,3.333zm80.003-2.667c3.175.91 4.954,4.034 8.666,5.333 8.717-1.82 9.816,4.662 14,4.667-5.064-7.54-19.547-12.147-30-11.333 .7,3.607 4.93.645 7.33,1.333zm-67.34,9.333c1.051,4.923-1.075,5.354 2,8.667-.195-4.367-.045-4.935-.667-8.667 .37.002.757-.54 0-.667-.14.52-.55.776-1.33.667zm16,.667c.758,2.511-.638,3.036 1.333,4-.654-3.148 2.409-3.789 0-5.333-.13.747-.73,1.037-1.33,1.333zm7.34,8c.918-.029 1.464.314 2,.667 2.517-2.926 1.991-7.861 0-10-.35,4.253-.65,5.543-2,9.333zm42-6c2.542.877-1.033,4.003 2.666,4-1.103-2.756 1.473-5.228 0-7.333-.159,1.25-1.098-.378-1.333.667 1.8.602-1.53,1.49-1.34,2.666zm-24.67,0c-.288,1.526.264,4.469.667,7.333 .196-1.389 1.804.989 2-1.333-.56-3.396-1.73-10.963-2.67-6zm-32,2.667c.69-.374 2.644-.65 3.333-2.667-1.101-.01-.373-1.849-1.333-2-.32,1.5-3.39,3.66-2,4.667zm65.33,5.333c1.714-1.703 1.504-7.464.667-10-1.82,2.653-.68,7.387-.67,10zm-120.66-6c.909-.849 1.03-3.266-.667-3.333-.358,1.394-1.168,2.505.667,3.333zm168-.667c.269-3.501-2.26-1.67-3.334-2.667-.47,2.466 1.05,2.946 3.33,2.667zm-124.67,7.339c.391-2.212.867-8.366-2-9.333-1.844,4.195-1.528,7.356 2,9.333zm83.33,4c1.165-2.809 1.169-5.591 3.334-4.667 .324-5.125 2.278-5.092-.667-8.667-.16,1.25-1.098-.378-1.333.667 3.1,2.531-4.33,8.08-1.33,12.667zm12-13.339c-.209.901-.948,1.273-.666,2.667 .409.924 2.566.101 2.666,1.333-2.568,3.369-1.86,9.016-4.666,12.667 5.124,1.929 6.307,9.627 16,9.333 .53-1.249 5.772-3.404 4-6.667-5.171,2.822-11.48,6.35-13.334,0 1.841,1.821.626-.977 2-1.333 .828,1.191 1.939-.518 3.334.667 .387-1.835 1.659-2.785 2-4.667h-3.334c-1.151.404.052,3.162-1.333,3.333h-1.333c1.11-1.325-.061-.848 0-2.667 1.844.113 2.288-1.024 1.333-2 2.539,2.198 1.405-2.56 2-2.667 1.364,2.841 5.336,4.676 5.333,2.667 1.604.871 4,4.407 5.334,3.333 .357-1.545-2.777-2.185-2.667-5.333-6.81-4.316-8.14-7.846-16.66-10.659zm16,.667c1.102.01.373,1.849 1.334,2 .141-.806.739-.41 1.333,0 .462-1.175.736-2.064 0-2.667 .29,1.871-2.47-1.671-2.66.667zm-148,3.333v-1.333c-.038-.407-.1-.789-.667-.667-.689,1.86-2.644-3.503-3.333,0 2.54-.539 2.046,1.954 4,2zm26,0c2.432,2.68.289,9.934 4.667,10.667-1.976-6.131-.324-9.417-3.333-13.333 .485,1.817-1.325,1.34-1.334,2.664zm140.67,0c.112-3.252-2.346-.821-3.333-2-.11,2.062 2.34,2.998 3.33,2zm-184.67,2h2.667c.316-2.094-.832-2.724-2-3.333-.858,1.572.087,1.24-.667,3.333zm30.667,12.669c-.806-.141-.41-.74 0-1.333-8.275-3.465-2.541-10.934 3.333-14-4.954-1.154-9.181,5.477-12.667,9.333-2.135,2.362-6.872,5.71-4.667,8.667 2.415-2.772 2.178-7.917 9.333-7.333-.833,2.83 3.156,4.85 4.668,4.66zm176-13.335c1.536.239 5.345-1.573 4.667-1.333-.374-1.506-1.04.809-2-.667-.19,1.374-2.95.158-2.67,2zm-228-.667c-.038.407-.1.79-.667.667-1.423-1.46-7.425-1.699-6,.667 1.511-1.324 6.817,1.042 6.667-1.334zm-9.333,7.332c2.8,2.27 6.271-1.067 8-2.667-2.312.1-4.671,1.27-8,2.67zm125.33,1.34c-.806-.141-.41-.74 0-1.333-5.443.776-8.143-1.19-10.667-3.333-6.308,3.568-14.771,1.582-16,6 8.614-1 17.06-7.343 21.333.667 1.084,8.129-.951,14.208 2,18 .73-3.85-.22-16.49 3.34-20.01zm-69.333,8c-.784-.104-1.892.114-2-.667 .407-.038.79-.1.667-.667-5.711.964-.116,5.312 1.333,6 2.079.988 8.659-.65 10.667-4.667 .536-1.072-1.57-3.538.667-4.667-2.505-1.283.564-3.617-2.667-5.333 .407-.038.789-.1.667-.667-1.161.05-2.073-.149-2.667-.667-.21.901-.949,1.273-.667,2.667 3.133-1.089.391,3.614 3.333,2.667 .211,4.02-.326,8.681-7.333,8.667-.328-2.8-3.676-.47-2-2.66zm76.663-10c-1.075-.88-5.873-1.44-6,.667 2.81-.01 5.58-.03 6-.67zm-32.66,43.33c-1.236,3.549-6.836,4.417-10,6.667-4.129,2.938-6.096,7.794-8,9.333-9.549,7.718-22.231-7.949-32.667-1.333 1.994.45.432,4.457 2.667,4.667 2.502-1.892 6.637-4.996 12-2.667-1.286,1.835 1.748,3.41 1.333,1.333 4.862,4.622 13.439,1.573 14,10.667 .785.104 1.893-.115 2,.667-.282,3.207 2.217,10.553 6,14.667 .08-9.568-6.733-16.147-6.667-23.333 5.218-4.507 12.613,1.926 12.667-11.333 .747-.068 1.04.97 1.333,0 3.073-10.156 15.559-3.833 24-4.667-1.821,1.841.976.625 1.333,2-3.963,9.314.38,15.491-2,24.667 3.03.02.085,1.959 0,2.667-.003.024 1.366.814 1.333,1.333-.288,4.632-.942,13.667-2.667,15.333-14.08-1.466-19.396,4.82-26.667-2-.263-1.147.99-1.709 0-2-1.28,2.91-1.206-4.423-2-2 1.893,5.425 1.075,9.898-2.667,12.667 5.521-3.787 27.71-4.445 29.333-6 2.006,1.398 4.077,2.285 4,4.667-.268,8.307-.297,23.144-1.333,36-2.343,2.604-3.642.569-5.333,2.666 1.628.665 1.42.222 4,.667-1.821,1.841.977.626 1.333,2-.181,4.4 1.44,9.194.667,16-.57,5.019-.79,11.386-2.667,15.333 2.236,1.868 1.013,6.853-.667,8-2.56-.784-5.058-2.694-8.667-1.333 10.763.163 9.581,9.666 11.333,12.667-1.966,11.46-2.433,23.45-.667,36.666 4.701-12.627-.802-19.319.667-32 .663-5.724-.323-11.064 4-14-.37.002-.757-.54 0-.666 6.206-.673 10.453-1.813 14-2 5.834,5.669 3.33,18.147 10,25.333-1.374-11.264-11.494-24.745 4-30 .067.748-.969,1.038 0,1.333 7.895-6.725 22.903-3.229 24,8.667 1.884-.551 1.728.939 3.333.667-.332-5.273-4.7-5.991-3.333-11.334-4.902-5.271-18.161-1.879-17.333-14.666-.785-.104-1.893.114-2-.667 .964-.16 1.55-5.486-.667-4.667-2.136,4.392 4.837,13.522-.667,18.667-11.83,2.324-22.586,5.759-32.667,7.333-.315-2.798-.522-.47-2-2.666 .386-5.944.797-12.167 0-18.667 3.615-2.083.203-16.45 4-19.333 3.393-1.045 19.237,3.38 22.667,1.333-9.198-2.691-19.878-.868-24.667-6.667-.833-18.403 1.277-30.811 1.333-38.666 .669-.003.793.54 1.333.666-3.896-6.936.292-10.718-2.667-16 .07-10.307 1.48-18.724 1.333-26.667-.042-2.293-.136-4.095 2.667-5.333 8.004-3.538 28.292-3.686 27.333,12 4.323.489 8.515-.998 8.667-2.667 .141.806.739.41 1.333,0-.417,1.299 3.655,3.14 4,6-.071-.595-1.805,6.304-2.667,8-1.178,2.321-3.869,2.929-4.666,5.333-1.078,3.252-.922,4.083-2,6.667-1.783,4.272-4.495,10.669-6.667,13.333-7.727.826-14.673-1.146-21.333-2.667 9.832,8.051 17.187-.298 24,6.667-.449-.458.718,1.797 1.333,2.667 1.622,2.295 2.902,9.602 5.333,12 2.094,2.065 3.164,2.11 4.667,4 .303-7.023-5.916-11.517-8.667-16.667-4.226-7.912.534-13.054 5.334-20.667-2.032-.815.975-2.544-.667-3.333 2.951.289 1.556-1.408 1.333-2.667h2c-.866-3.628 2.251-6.399 4-9.333 2.731.493 9.826-.385 14-.667 4.495-8.785 12.024.424 16.667,0-1.271-.068.531-2.484.667-3.333-8.229-4.071-16.46-1.423-22.667.667-.067-.748.969-1.038 0-1.333-5.132,2.939-9.704-1.274-13.333-4.667-4.31-4.027-12.459-9.809-20.667-13.333 6.16-10.625 3.745-30.052 13.333-39.333-.806-.141-.409-.74 0-1.333-5.675-1.605-13.425-1.588-17.333-1.333 3.455,1.211 7.324,2.009 12,2-1.663,11.82-6.309,26.29-8,37.333-.002-.37.54-.756.667,0-5.124,5.197-11.694,3.466-18.667,4.667-3.247-7.292.457-13.316-1.333-20-1.565,4.423-1.627,8.035-2,18-7.946,4.492-9.34,2.208-17.333,1.333-2.418-4.733-1.542-7.493-4.667-11.333-.96,3.12 3.24,5.92 2.06,9.31zm-32.67,74.66c.194-.077-.97-1.396-1.333-1.333-2.896.503-5.353.999-8.667,1.333-7.216.728-15.319,2.708-21.333,10 14.885-6.775 38.387-16.601 43.333,2.667h2c-.062,2.405 1.706,5.37 3.333,6.667-.149-1.937-.429-5.257-.667-6-1.124-3.512-4.598-4.413-6.667-8-.151-.263-.471.296-1.333-.667-2.678-2.992-3.215-6.465-2-8 1.619-2.045 2.573-2.029 3.333-3.333 .328-.562 2.494-.632 3.333-1.334 2.773-2.317.792-6.113 4.667-6.666-1.214.021 1.271-3.354-1.333-3.334-.01,1.102-1.849.373-2,1.334-1.473,2.156-5.607,4.087-6,8.666-3.203.76-3.812,6.04-8.666,7.99zm44.67,18.67c-9.027.952-14.155,1.569-23.333,4-1.896-1.337-.831-3.099-2.667-3.333-1.835,1.031-.064,4.001.667,4.666-1.704-1.763-1.323.913-1.333,2.667-.785.104-1.893-.114-2,.667-.887,7.063-6.339,20.304-17.333,22.666 .755,3.824-2.913,7.073-5.333,12 2.718.147 4.751-2.762 4-4 5.812-4.896 18.59-6.599 23.333-6-2.303-.871-4.369-1.255-7.333-1.333-.941-2.88-1.578-5.159-1.333-7.333 .262-2.336 3.089-3.454 2.667-3.334 1.111-.317 1.119-9.413 3.333-13.333 7.911-3.474 17.287-4.838 26.667-6.667-.81-.17-.41-.76 0-1.36zm42.66,1.33c-3.835,4.82 4.696-5.416 8-6 3.681-14.09 10.353-7.975 24-10-5.264-1.979-11.401-.033-16.666-.666-3.134-.377-4.191-2.812-6.667-1.334 .963,1.588 1.011,1.637 2,2-3.03,8.35-8.28,6.7-10.66,16zm-144.66-135.99c-1.149.133-3.517,1.971-4.667,4 1.176-1.3 5.806-2.6 4.667-4zm59.333,8c.068,2.454-4.674,4.257-7.333,6.667 .816,6.929-4.175,8.534 0,11.333-.541-12.387 11.25-18.83 20-21.333-3.555-1.06-7.689,1.45-12.667,3.33zm28,16c-1.522-10.382-9.199-16.216-4-23.333-3.614.036-7.937,1.904-11.333,4 .407.038.79.1.667.667-.37-.002-.757.54 0,.667 5.215-4.459 9.859,7.134 8.667,9.333 6.12,3.3 1.54,7.3 6,8.66zm-76.667-20.67c.773.56 1.787.879 3.333.667v-2.667c-.969.365-3.445-.779-3.333.667 .806.14.41.73 0,1.33zm155.34,5.33c2.074,1.719 4.373,6.717 6.666,6-2.73-2.345-1.108-2.797-2.666-6.667-4.463-1.767-14.39-1.602-18-2 4.11,1.45 9.72,1.39 14,2.67zm32,8c-1.161-4.396-2.712-6.353-4.667-8.667-.16.951-1.098,1.125-1.333,2 3.76,1.65 3.5,4.97 6,6.67zm-168,3.34c-.784.104-1.892-.115-2,.667 .513,3.058-5.476,12.608-2.667,15.333 2.621-4.161 2.917-6.24 6-8-4.686-5.893 7.428-13.177 3.333-18.667-1.237,3.39-5.948,7.27-4.666,10.67zm1.333,12.66c.365.969-.779,3.446.667,3.333 4.673-1.761 13.005-10.711 6.667-18.667-2.667,5.28 3.947,12.69-7.334,15.34zm166.67,2.67c-7.969-3.872-9.495-8.368-8-18-4.93,4.9.73,20.26 8,18zm6-2.67c-1.194-2.387-1.543-10.653-6-14.667 .577,4.009.235,5.128 0,9.333 4.24,1.3 3.63,4.69 6,5.34zm-184,10.67c-.244,1.481-.22,7.987-2.667,7.333 .679,5.798-3.351,6.901-1.333,9.333 .141-.806.74-.41 1.333,0 6.365-7.868 3.95-12.511 5.333-21.333-.838,1.61-.425,4.46-2.666,4.67zm8.666-.67c-2.511-.344-3.036-.843-4,1.333 3.755.08 1.042,8.47 2.667,8.667 .16-1.25 1.098.378 1.333-.667 .397-2.388 1.151-5.055 1.333-8-1.161-1.25-2.567.92-1.333-1.33zm170,14.67c.535-.884 3.4,9.021 7.334,5.333-7.937-1.958-8.928-13.078-4.667-18.667-5.43.93-3.48,8.72-2.66,13.34zm12.67,5.33c-1.85-6-.981-15.996-4.667-18-2.5,5.31.41,14.4 4.67,18zm-189.33-2c4.386.608 4.085-3.471 5.333-6-3.182.9-3.718,2.52-5.333,6zm-10,5.34c1.326.451-.659,2.215.667,2.667 1.466-1.957.855-3.519 3.333-5.333-1.52-.186-2.506.161-2.667,1.333 1.806,1.37-1.524.57-1.333,1.33zm22,10.66c-.529,1.399-3.413,17.127-6,19.333-2.803,2.392-2.495,5.569-3.333,8 2.274.639 6.913,1.386 4.667-2h2c3.167-8.91 3.737-16.954 5.333-25.333 .515-2.705 3.144-6.691 2-11.333-2.867,2.95-2.705,6.15-4.667,11.33zm-16.667-8c6.33,3.826-.225,9.642 2,14-2.308.604-6.62,2.683-4.667,5.333 1.344-2.474 2.606-.91 4.667-2.667 2.697-1.48 3.936-15.35.667-17.333 .285,1.87-2.486-1.67-2.667.67zm-10,10c2.125,2.468-3.339,9.378 0,12.667-.298-2.982 1.766-3.031 2-8 5.433-2.969 2.366-9.926 2.667-14-.16,1.25-1.098-.378-1.333.667 1.485,1.86-.905,5.73-3.334,8.66zm198-3.33c-1.664,5.572-3.63,11.267-1.333,17.333 .784.104 1.892-.114 2,.667-.407.037-.79.1-.667.666h4c-.415-2.028-1.48-3.408-4-3.333-1.914-4.537-.506-6.988.667-13.333 .582-1.026 5.109-1.486 2.666-3.333-.21.98-2.81-.74-3.34,1.32zm10.67,20.66c.394-3.813.233-10.937-2-16.667-1.69,6.15.93,12.3 2,16.67zm-23.34,7.34c1.913-4.806-1.623-8.751-3.333-12.667-.429-.983-1.39-5.331-2.667-4.667 1.51,5.84-1.53,15.26 6,17.34zm-184.66-8c-.806-.142-.41-.74 0-1.334-5.676,1.559-3.577,8.177-4,10.667-1.253,7.377-.869,14.094-1.333,21.333 4.891.346-.171-9.48 4-11.333-2.003-4.482-2.089-13.571.667-19.333-.003.36.539.74.666-.01zm0,9.33c2.42.024 5.263-.374 6,1.333 1.329,6.911-1.465,12.507-6,14.667 1.656,1.576 3.924.006 6,0 2.022-6.915 6.57-19.139-4.667-19.333-1.476,1.55-.589,1.78-1.333,3.33zm199.33,4c1.556-1.777 3.026-3.64 5.333-4.667-3.438-1.186-5.799.831-7.333,3.334 .784.104 1.893-.115 2,.666-.37,0-.76.54 0,.67zm10,4c-.748.067-1.038-.969-1.333,0 1.261,1.108-.226,1.79-.667,4 3.206,2.307.676,5.962 3.333,7.333-.438-5.497 1.698-15.093-1.333-16.666 .92,1.19-1.19,2.98 0,5.34zm-4.67,14c-.463-3.261-5.319-3.132-7.333-7.333 .802-1.249.802-3.418 0-4.667-2.385,3.284-.007,5.383-1.333,8.667 3.68.44 6.55,5.29 8.66,3.33zm-19.33-.67c-2.366-2.87-4.912-1.876-6-5.333-2.705,1.459-5.227-2.727-7.333,0 3.45-.485 5.953,4.245 6,1.333 2.06,1.27 5.72,6.55 7.33,4zm-182,38.67c-4.489-3.601 1.92-18.071-4-20.667-2.903-7.626-.757-11.204-1.333-16.666-.141.806-.74.409-1.333,0 .359,2.358-1.079,2.921-2,4 1.605,9.331 2.703,28.23 7.333,35.333 3.145.493 2.663-2.158 2-2.667-.038.42-.1.8-.667.68zm7.333-26c-.021.619-.625-.188-1.333-2-1.229-3.148-2.468-6.744-8-4.667 .365.969-.779,3.446.667,3.334 9.159,3.231 4.694,8.231 7.333,20-1.438,1.674-4.12,2.103-5.333,4 2.68.087.375,1.756 5.333,1.333-.036-1.247.513-1.411 1.333-.667 1.995-7.58-.206-15.35 0-21.32zm198.67,0c-1.642-.789 1.365-2.519-.667-3.333-.141.806-.739.409-1.333,0-1.03,2.41 3.65,4.53 2,3.33zm-74.67,0c-.141.806-.739.41-1.333,0-.912,2.896-3.371-.667-5.333,2 2.765.574 5.945,3.877 5.333,7.333 2.614-1.426.483,5.19 2,2.667-.646-4.429.543-4.449-2-7.333 .539-1.239.862-2.694 2-3.334-1.25-.16.38-1.1-.67-1.34zm63.34,24c-3.264-2.136-6.14-10.757-2-12.667-2.461-3.271-.267-7.146 4-8.666 1.809,1.148 3.756,2.954 4.666,0-5.126-1.443-7.611-2.248-11.333,1.333-.41,10.51-4.35,18.56 4.66,20.01zm9.33-17.33c-3.33,6.819-1.607,12.294-2.667,19.333 .142-.806.74-.41 1.334,0-1.01-4.65 5.72-15.98 1.34-19.33zm-180,26.66c-1.884-3.448-4.389-6.277-8-8-1.836.153-3.392,1.089-4.667,3.334 1.205.647 6.987-.587 7.333.666-1.436,1.49 4.51,6.81 5.334,4zm173.33-2.66c.37-.002.757.54 0,.666-.037-.406-.1-.789-.666-.666v1.333c.037.406.1.789.666.667 1.174.059 2.645-1.778 4-3.334-1.325-.451.659-2.215-.666-2.666 .38,2.36-2.02,1.88-3.33,4zm-193.33-1.34c-1.161.051-2.073-.148-2.667-.666-1.81,6.209 7.051,16.478 9.333,19.333 3.246,4.062 4.048,7.701 8,8 1.932-1.767-2.827-4.493-3.333-6-1.263-3.756-.384-9.626-6.667-8.667 .429-4.01-6.669-7.01-4.666-11.99zm66.67,28c-2.502-.214-1.831,2.525-3.333,6 5.204-6.09 7.283-14.378 10.667-23.333 2.342-.824 2.242-4.095 5.333-3.333-4.821-1.55-10.406-7.795-13.333-5.334 13.781,4.674 2.196,16.077 0,24 .724.16 1.601,1.098.667,1.334-.27-1.03-.81-.1-.01.66zm111.33-27.33c-2.195,2.407-9.386,6.86-4.667,10-.403-4.005 2.643-4.356 4.667-7.333h3.333c.238,1.295 2.935,4.961 4,4.666 .72-1.44-3.46-6.56-7.33-7.34zm12.67,4.67c-2.02,5.226-1.859,8.8-6.667,12.666-1.249-.357-3.596.682-6,2 .658,8.038-2.666,7.528-6.667,12.667 2.484,2.488 8.568-4.07 8-6.667 1.945.187 2.292-.16 1.334-1.333 5.92-2.712 5.754-10.698 10-12-1.62-4.09 3.93-3.14.01-7.34zm-176.67,8.66c.806.142.41.74 0,1.334h3.333c-.684-2.706 2.851-2.183 4-4.667-1.871.285 1.671-2.485-.667-2.667-.141.806-.74.41-1.333,0-1.261,2.53-2.704,4.87-5.333,6.01zm159.33,11.34c-.427-2.522-2.795-7.025-2.666-9.334h-2c.551,3.875 2.403,5.872 1.333,8.667 2.1-1.12 2.73,2.47 3.34.66zm-136-5.34c-.52-.146-.775-.558-.667-1.333-6.336-1.614-11.646-.431-10.667,5.333 .16-1.25 1.098.379 1.333-.666-1.148-.978 2.709-2.586 3.333-4 2.935-.61 5.355,3.78 6.668.67zm-4,13.34c5.003,2.607 5.776-3.192 8-4-.831-2.495 1.003-6.172-4-8.667 2.769,2.997.087,14.062-2.667,10.667-.159.95-1.097,1.12-1.333,2zm115.34,1.33c.423,2.243.473,4.86 2,6 1.346-4.938 1.571-9.033 2-12 2.579.738 2.371-2.356 4-.667-4.76-4.53-6.01,3.36-8,6.67zm-120.67,5.33c-1.88-5.674-7.965-7.557-11.333-13.333-.522.463-1.483,3.72 0,4 2.869.92 8.124,8.75 11.333,9.33zm135.33-7.33c4.124-.928-.704-3.867 0-6-.468.857-3.832-.491-4,.667 1.98.85 5.34,2.07 4,5.33zm-120,5.33c3.635-1.979 4.48-3.775 7.333-5.333 .187-1.52-.161-2.506-1.333-2.667-2.535,2.84-7.665,4.45-6,8zm7.334,4.67c3.478.915 3.231-3.536 5.333-5.333-.748-.142-1.038-.74-1.333-1.334-2.029-.029-2.592,1.408-4,2-.227,2.06 1.543,3.18 0,4.66zm83.333,4c1.261-.149 1.471.751 2.667.667 .335-4.76-1.402-5.417-2-10h-2c.377,2.891.138,4.955 2,5.333-1.69,1.26.61,2.34-.67,4zm16.67,2c5.691-2.596 13.39-6.169 16.666-11.333-5.166,1.659-7.907,3.888-12,4 .7,4.28-5.37,5.28-4.67,7.33zm-79.34-4.67c.976,2.372-2.143,3.995-.667,4.667 .452-1.326 2.215.659 2.667-.667-.005-7.171 8.208-3.554 13.333-.666 .848-.789.283-2.519-.667-3.334-3.162,1.146-6.235-3.53-9.333-4.666-1.175,1.375-2.064.583-2.667,1.333 .59,0-.33,4.06-2.66,3.34zm-34.663-.66c-3.476-.302-3.46-4.096-8-3.334 1.041,2.71 6.764,6.89 8,3.33zm58.663,4c2.305.082 3.142-1.303 4.667-2 1.38-6.46 9.198.986 10,5.333 .373-1.506 1.04.809 2-.667-1.23-5.689-4.989-4.758-6.667-10-5.29.01-9.43,1.16-10,7.34zm30.67-7.34c-.019,2.79-.717,8.586 2,8-.406-.037-.789-.1-.667-.666 1.421-.521 2.159-3.115 1.334-4.667-1.937,1.437-.284-2.459-1.334-2.667-.14.82-.74.42-1.33.01zm-6,11.34c1.9-3.929 1.868-7.805 1.333-10.667-1.74-.29-2.1,8.6-1.33,10.67zm-59.333-2c1.855-2.402.812-3.598 2.667-6-1.538.204-.741-1.927-2-2-.291,2.18-2.644,5.76-.663,8zm-22-1.34c2.461,1.713 5.219,4.076 7.333,2.667v2c4.831-.691 13.062,5.459 16.667,1.333-10.77,1.79-13.386-8.71-24.003-6zm100.66,5.34c-10.9-.716-12.601.101-19.333,5.333 4.462,1.348 8.199-3.34 8-.667 .047-2.842 5.722-.056 6.667-2-1.37-.024 10.276-3.246 6.666-5.333-.34,1.96-1.27.38-2.01,2.67zm-60,1.33c-2.513-.209-6.503,2.346-9.333,2.667-1.254.142-3.905-3.294-3.333.666 7.957,1.912 9.093,2.086 20.667,3.334 .196-1.359 1.804-1.308 2-2.667-4.46.8-6.42-3.7-10.01-4zm14.67,6c8.077,3.481 13.592.935 21.333-.667v-2.666c-7.3,6.41-13.72-4.58-21.33,3.34zm-92,6.67c4.08-1.528 8.855-3.84 12.667-4.667-1.25-.16.378-1.098-.667-1.333-2.934,3.45-9.709.66-12,6zm84.67-1.34c1.704-.074 2.333-1.222 3.333-2-2.2-1-4.91-.78-3.33,2zm-71.337,6c-.964.138-1.489,1.21-4,1.334 .843,3.948-5.072,1.417-2.667,5.333 .141-.806.74-.41 1.333,0-.354-3.92 5.697-4.94 5.334-6.66zm6.667,6c.952.16 1.125,1.099 2,1.334-.493-2.938 2.158-2.731 2.667-4.667-3.299-.62-2.225,3.12-4.667,3.34z" fill="#5b5600"></path>
	<path d="m116,25.241c3.228.799.451,6.321-.667,10.667-.594-.41-1.192-.806-1.333,0-1.7-2.271 1.94-6.919 2-10.667z" fill="#f8ed9b"></path>
	<path d="m124.67,31.908c.928,1.739 2.446,2.888 2,6-1.445.113-.302-2.364-.667-3.333-.567-.123-.629.26-.667.667 0-.828-1.66-1.94-.66-3.334z" fill="#f8ed9b"></path>
	<path d="m136.67,33.908c.724.165.453,1.326 1.333,1.333-.952,1.492-2.14,2.749-3.333,4-1.64-1.741 4.2-2.707 2-5.333z" fill="#f8ed9b"></path>
	<path d="m140,43.241c.891.665 1.31,1.802 2.667,2-.123,2.177 3.555,8.729 1.333,11.333-2.687.113-5.142.454-6,.667 .06-5.54 1.44-8.71 2-14z" fill="#f8ed9b"></path>
	<path d="m121.33,44.575c.563,1.6.563,4.399 0,6 2.305,1.954 1.693,2.714 2,6.667-8.18,4.71-7.232-7.727-3.333-12.667 .59.409 1.19.805 1.33,0z" fill="#f8ed9b"></path>
	<path d="m128,79.908c1.251-1.271-.396-1.206 0-3.333 6.698,3.157 18.499-1.621 26,2 .763-.773 5.104-1.721 4,1.333-17.19.312-11.8,1.634-30,0z" fill="#f8ed9b"></path>
	<path d="m161.33,78.575c10.453-.814 24.936,3.793 30,11.333-4.184-.004-5.283-6.486-14-4.667-3.712-1.299-5.491-4.424-8.666-5.333-2.39-.688-6.62,2.274-7.33-1.333z" fill="#f8ed9b"></path>
	<path d="m102.67,88.575c.757.126.37.668 0,.667 .622,3.732.472,4.3.667,8.667-3.075-3.313-.949-3.744-2-8.667 .77.108 1.18-.148 1.33-.667z" fill="#f8ed9b"></path>
	<path d="m168,89.241c.235-1.045 1.174.583 1.333-.667 1.473,2.105-1.103,4.577 0,7.333-3.699.003-.124-3.123-2.666-4-.18-1.175 3.15-2.063 1.34-2.666z" fill="#f8ed9b"></path>
	<path d="m144.67,97.908c-.196,2.323-1.804-.056-2,1.333-.403-2.865-.955-5.808-.667-7.333 .94-4.963 2.11,2.604 2.67,6z" fill="#f8ed9b"></path>
	<path d="m176,89.908c.837,2.536 1.047,8.297-.667,10-.01-2.613-1.15-7.347.67-10z" fill="#f8ed9b"></path>
	<path d="m182.67,91.908c.235-1.045 1.173.584 1.333-.667 2.945,3.575.991,3.542.667,8.667-2.165-.924-2.169,1.858-3.334,4.667-3.01-4.587 4.42-10.136 1.33-12.672z" fill="#f8ed9b"></path>
	<path d="m210,101.91c-.11,3.148 3.024,3.789 2.667,5.333-1.334,1.073-3.73-2.463-5.334-3.333 .003,2.01-3.969.174-5.333-2.667-.595.106.539,4.864-2,2.667 .955.976.511,2.113-1.333,2-.061,1.819 1.11,1.342 0,2.667h1.333c1.385-.171.182-2.929 1.333-3.333h3.334c-.341,1.882-1.613,2.832-2,4.667-1.395-1.184-2.506.524-3.334-.667-1.374.357-.159,3.154-2,1.333 1.854,6.35 8.163,2.822 13.334,0 1.772,3.262-3.47,5.417-4,6.667-9.693.294-10.876-7.405-16-9.333 2.806-3.65 2.098-9.297 4.666-12.667-.1-1.233-2.257-.409-2.666-1.333-.282-1.393.457-1.765.666-2.667 8.51,2.801 9.84,6.331 16.66,10.657z" fill="#f8ed9b"></path>
	<path d="m212,91.241c.736.603.462,1.491 0,2.667-.594-.41-1.192-.806-1.333,0-.961-.151-.232-1.99-1.334-2 .18-2.338 2.94,1.204 2.66-.667z" fill="#f8ed9b"></path>
	<path d="m57.333,93.241c.689-3.503 2.644,1.86 3.333,0 .567-.123.629.26.667.667v1.333c-1.954-.046-1.46-2.539-4-2z" fill="#f8ed9b"></path>
	<path d="m69.333,105.24c-7.156-.584-6.918,4.562-9.333,7.333-2.206-2.957 2.532-6.305 4.667-8.667 3.486-3.856 7.713-10.487 12.667-9.333-5.875,3.066-11.609,10.535-3.333,14-.41.593-.806,1.192 0,1.333-1.513.2-5.502-1.82-4.668-4.66z" fill="#f8ed9b"></path>
	<path d="m252.67,94.575c.96,1.475 1.626-.839 2,.667 .678-.24-3.131,1.573-4.667,1.333-.28-1.842 2.48-.626 2.67-2z" fill="#f8ed9b"></path>
	<path d="m15.333,97.241c-1.425-2.366 4.577-2.127 6-.667 .567.123.629-.26.667-.667 .15,2.377-5.156.011-6.667,1.334z" fill="#f8ed9b"></path>
	<path d="m20.667,100.58c-1.729,1.599-5.2,4.937-8,2.667 3.329-1.41 5.688-2.58 8-2.67z" fill="#f8ed9b"></path>
	<path d="m134.67,124.58c-2.951-3.792-.916-9.871-2-18-4.273-8.01-12.719-1.667-21.333-.667 1.229-4.418 9.692-2.432 16-6 2.523,2.144 5.223,4.11 10.667,3.333-.41.593-.806,1.192 0,1.333-3.57,3.53-2.62,16.17-3.34,20.01z" fill="#f8ed9b"></path>
	<path d="m139.33,103.24c.127-2.106 4.925-1.546 6-.667-.42.65-3.19.67-6,.67z" fill="#f8ed9b"></path>
	<path d="m110.67,136.58c3.125,3.84 2.249,6.6 4.667,11.333 7.993.875 9.387,3.159 17.333-1.333 .373-9.965.435-13.577 2-18 1.791,6.684-1.914,12.708 1.333,20 6.973-1.201 13.543.53 18.667-4.667-.127-.756-.669-.37-.667,0 1.691-11.043 6.337-25.513 8-37.333-4.676.009-8.545-.789-12-2 3.908-.255 11.658-.272 17.333,1.333-.409.594-.806,1.192 0,1.333-9.588,9.281-7.173,28.709-13.333,39.333 8.208,3.524 16.357,9.306 20.667,13.333 3.629,3.393 8.201,7.606 13.333,4.667 .969.295-.067.585 0,1.333 6.207-2.089 14.438-4.738 22.667-.667-.136.849-1.938,3.266-.667,3.333-4.643.424-12.172-8.785-16.667,0-4.174.282-11.269,1.16-14,.667-1.749,2.934-4.866,5.706-4,9.333h-2c.223,1.258 1.618,2.955-1.333,2.667 1.642.789-1.365,2.519.667,3.333-4.8,7.612-9.56,12.754-5.334,20.667 2.751,5.15 8.97,9.644 8.667,16.667-1.503-1.89-2.573-1.935-4.667-4-2.431-2.398-3.711-9.705-5.333-12-.615-.87-1.782-3.125-1.333-2.667-6.813-6.965-14.168,1.384-24-6.667 6.66,1.521 13.606,3.493 21.333,2.667 2.172-2.664 4.884-9.062 6.667-13.333 1.078-2.583.922-3.414 2-6.667 .797-2.405 3.488-3.013 4.666-5.333 .862-1.696 2.596-8.595 2.667-8-.345-2.86-4.417-4.701-4-6-.594.41-1.192.806-1.333,0-.152,1.669-4.344,3.156-8.667,2.667 .959-15.686-19.329-15.538-27.333-12-2.802,1.238-2.709,3.04-2.667,5.333 .146,7.943-1.264,16.36-1.333,26.667 2.959,5.282-1.229,9.063 2.667,16-.54-.126-.665-.669-1.333-.666-.057,7.855-2.167,20.263-1.333,38.666 4.789,5.799 15.468,3.976 24.667,6.667-3.43,2.047-19.273-2.378-22.667-1.333-3.797,2.883-.385,17.25-4,19.333 .797,6.5.386,12.723 0,18.667 1.478,2.196 1.685-.132 2,2.666 10.081-1.574 20.836-5.009 32.667-7.333 5.504-5.145-1.469-14.275.667-18.667 2.217-.819 1.631,4.507.667,4.667 .107.781 1.215.562 2,.667-.828,12.787 12.431,9.396 17.333,14.666-1.367,5.343 3.001,6.061 3.333,11.334-1.605.272-1.449-1.218-3.333-.667-1.097-11.896-16.105-15.392-24-8.667-.969-.295.067-.585 0-1.333-15.494,5.255-5.374,18.736-4,30-6.67-7.186-4.166-19.664-10-25.333-3.547.187-7.794,1.327-14,2-.757.126-.37.668 0,.666-4.323,2.936-3.337,8.276-4,14-1.469,12.681 4.034,19.373-.667,32-1.767-13.216-1.299-25.206.667-36.666-1.753-3.001-.57-12.504-11.333-12.667 3.609-1.361 6.107.549 8.667,1.333 1.68-1.147 2.903-6.132.667-8 1.877-3.947 2.096-10.314 2.667-15.333 .774-6.806-.848-11.6-.667-16-.357-1.374-3.154-.159-1.333-2-2.58-.445-2.372-.002-4-.667 1.692-2.097 2.991-.062 5.333-2.666 1.037-12.856 1.066-27.693 1.333-36 .077-2.382-1.994-3.269-4-4.667-1.623,1.555-23.813,2.213-29.333,6 3.742-2.769 4.56-7.241 2.667-12.667 .794-2.423.72,4.91 2,2 .99.291-.263.853 0,2 7.271,6.82 12.587.533 26.667,2 1.725-1.666 2.379-10.701 2.667-15.333 .032-.52-1.336-1.309-1.333-1.333 .085-.708 3.03-2.646 0-2.667 2.38-9.175-1.963-15.352 2-24.667-.357-1.375-3.154-.159-1.333-2-8.441.833-20.927-5.489-24,4.667-.293.97-.587-.068-1.333,0-.054,13.26-7.448,6.826-12.667,11.333-.067,7.186 6.746,13.765 6.667,23.333-3.783-4.114-6.282-11.459-6-14.667-.107-.781-1.215-.562-2-.667-.561-9.094-9.138-6.045-14-10.667 .414,2.077-2.62.502-1.333-1.333-5.363-2.329-9.498.775-12,2.667-2.235-.209-.672-4.217-2.667-4.667 10.435-6.616 23.117,9.051 32.667,1.333 1.904-1.539 3.871-6.396 8-9.333 3.164-2.25 8.764-3.118 10-6.667 1.12-3.37-3.08-6.17-2.06-9.31z" fill="#f8ed9b"></path>
	<path d="m88.667,212.57c.393-4.579 4.527-6.51 6-8.666 .151-.961 1.99-.232 2-1.334 2.605-.021.119,3.354 1.333,3.334-3.875.553-1.894,4.349-4.667,6.666-.84.702-3.005.771-3.333,1.334-.761,1.304-1.715,1.288-3.333,3.333-1.215,1.535-.678,5.008 2,8 .862.963 1.182.404 1.333.667 2.068,3.587 5.543,4.488 6.667,8 .238.743.518,4.063.667,6-1.628-1.297-3.396-4.262-3.333-6.667h-2c-4.946-19.268-28.449-9.442-43.333-2.667 6.014-7.292 14.117-9.272 21.333-10 3.313-.334 5.771-.83 8.667-1.333 .364-.063 1.527,1.256 1.333,1.333 4.853-1.94 5.462-7.22 8.666-7.99z" fill="#f8ed9b"></path>
	<path d="m124.67,240.57c-9.379,1.829-18.756,3.193-26.667,6.667-2.214,3.92-2.223,13.016-3.333,13.333 .422-.12-2.404.998-2.667,3.334-.244,2.174.392,4.453 1.333,7.333 2.964.078 5.03.462 7.333,1.333-4.743-.599-17.521,1.104-23.333,6 .751,1.238-1.282,4.147-4,4 2.42-4.927 6.088-8.176 5.333-12 10.995-2.362 16.447-15.603 17.333-22.666 .107-.781 1.215-.562 2-.667 .01-1.754-.37-4.43 1.333-2.667-.731-.665-2.502-3.635-.667-4.666 1.836.234.771,1.996 2.667,3.333 9.178-2.431 14.306-3.048 23.333-4-.41.63-.81,1.22 0,1.36z" fill="#f8ed9b"></path>
	<path d="m178,224.57c-.989-.363-1.037-.412-2-2 2.476-1.478 3.533.957 6.667,1.334 5.265.633 11.402-1.313 16.666.666-13.647,2.025-20.319-4.09-24,10-3.304.584-11.835,10.82-8,6 2.37-9.3 7.62-7.65 10.66-16z" fill="#f8ed9b"></path>
	<path d="m18,108.58c1.149-2.029 3.518-3.867 4.667-4 1.139,1.4-3.491,2.7-4.667,4z" fill="#f8ed9b"></path>
	<path d="m94.667,109.24c-8.75,2.504-20.541,8.947-20,21.333-4.175-2.8.816-4.405 0-11.333 2.659-2.41 7.402-4.212 7.333-6.667 4.978-1.87 9.112-4.38 12.667-3.33z" fill="#f8ed9b"></path>
	<path d="m104,119.91c1.192-2.199-3.452-13.792-8.667-9.333-.757-.127-.37-.669 0-.667 .123-.567-.26-.629-.667-.667 3.397-2.096 7.72-3.964 11.333-4-5.199,7.117 2.478,12.951 4,23.333-4.46-1.35.12-5.35-6-8.66z" fill="#f8ed9b"></path>
	<path d="m174.67,110.58c3.61.398 13.537.233 18,2 1.558,3.87-.064,4.322 2.666,6.667-2.293.717-4.592-4.281-6.666-6-4.28-1.29-9.89-1.23-14-2.67z" fill="#f8ed9b"></path>
	<path d="m214.67,114.58c.235-.875 1.173-1.049 1.333-2 1.955,2.314 3.506,4.271 4.667,8.667-2.5-1.71-2.24-5.03-6-6.67z" fill="#f8ed9b"></path>
	<path d="m212.67,121.91c-1.495,9.632.031,14.128 8,18-7.27,2.26-12.93-13.1-8-18z" fill="#f8ed9b"></path>
	<path d="m220.67,131.91c.235-4.205.577-5.324 0-9.333 4.457,4.013 4.806,12.28 6,14.667-2.37-.66-1.76-4.05-6-5.34z" fill="#f8ed9b"></path>
	<path d="m45.333,143.24c-1.383,8.823 1.031,13.466-5.333,21.333-.593-.41-1.192-.806-1.333,0-2.018-2.433 2.013-3.535 1.333-9.333 2.447.654 2.423-5.852 2.667-7.333 2.241-.21 1.828-3.06 2.666-4.67z" fill="#f8ed9b"></path>
	<path d="m52.667,148.58c-.182,2.945-.936,5.612-1.333,8-.236,1.045-1.174-.584-1.333.667-1.625-.197 1.088-8.587-2.667-8.667 .964-2.176 1.489-1.678 4-1.333-1.235,2.24.171.07 1.333,1.33z" fill="#f8ed9b"></path>
	<path d="m224,148.58c-4.261,5.588-3.27,16.709 4.667,18.667-3.934,3.688-6.799-6.217-7.334-5.333-.83-4.63-2.78-12.42 2.66-13.34z" fill="#f8ed9b"></path>
	<path d="m229.33,149.24c3.686,2.004 2.817,12 4.667,18-4.26-3.6-7.17-12.69-4.67-18z" fill="#f8ed9b"></path>
	<path d="m36,169.24c.161-1.173 1.147-1.52 2.667-1.333-2.478,1.814-1.867,3.377-3.333,5.333-1.326-.451.659-2.215-.667-2.667-.191-.75 3.139.05 1.333-1.33z" fill="#f8ed9b"></path>
	<path d="m61.333,169.91c1.144,4.643-1.485,8.629-2,11.333-1.597,8.379-2.167,16.423-5.333,25.333h-2c2.246,3.386-2.393,2.639-4.667,2 .838-2.431.53-5.608 3.333-8 2.587-2.206 5.471-17.934 6-19.333 1.963-5.18 1.801-8.38 4.667-11.33z" fill="#f8ed9b"></path>
	<path d="m42.667,172.58c3.269,1.983 2.031,15.853-.667,17.333-2.061,1.757-3.322.193-4.667,2.667-1.953-2.65 2.359-4.73 4.667-5.333-2.225-4.358 4.33-10.174-2-14 .181-2.35 2.952,1.19 2.667-.67z" fill="#f8ed9b"></path>
	<path d="m33.333,174.58c.235-1.045 1.173.583 1.333-.667-.301,4.074 2.767,11.031-2.667,14-.234,4.969-2.298,5.018-2,8-3.339-3.289 2.125-10.199 0-12.667 2.43-2.93 4.82-6.8 3.334-8.66z" fill="#f8ed9b"></path>
	<path d="m209.33,190.58c1.277-.664 2.238,3.684 2.667,4.667 1.71,3.916 5.246,7.861 3.333,12.667-7.53-2.09-4.49-11.51-6-17.34z" fill="#f8ed9b"></path>
	<path d="m30,199.91c-2.755,5.762-2.67,14.851-.667,19.333-4.171,1.853.891,11.679-4,11.333 .464-7.239.08-13.956 1.333-21.333 .423-2.49-1.676-9.108 4-10.667-.41.594-.806,1.192 0,1.334-.126.76-.668.38-.666.01z" fill="#f8ed9b"></path>
	<path d="m230,212.57c-.107-.781-1.216-.562-2-.666 1.534-2.503 3.896-4.52 7.333-3.334-2.307,1.027-3.777,2.89-5.333,4.667-.76-.13-.37-.67 0-.67z" fill="#f8ed9b"></path>
	<path d="m240,211.91c3.031,1.573.896,11.169 1.333,16.666-2.657-1.371-.127-5.026-3.333-7.333 .441-2.21 1.928-2.892.667-4 .295-.969.585.067 1.333,0-1.19-2.37.92-4.16 0-5.34z" fill="#f8ed9b"></path>
	<path d="m226.67,227.91c1.326-3.284-1.052-5.383 1.333-8.667 .802,1.249.802,3.418 0,4.667 2.014,4.201 6.87,4.072 7.333,7.333-2.11,1.96-4.98-2.89-8.66-3.33z" fill="#f8ed9b"></path>
	<path d="m208.67,226.57c-.047,2.912-2.55-1.818-6-1.333 2.106-2.727 4.628,1.459 7.333,0 1.088,3.457 3.634,2.463 6,5.333-1.61,2.55-5.27-2.73-7.33-4z" fill="#f8ed9b"></path>
	<path d="m34.667,268.57c.663.509 1.145,3.16-2,2.667-4.63-7.103-5.728-26.002-7.333-35.333 .921-1.079 2.359-1.642 2-4 .593.409 1.192.806 1.333,0 .577,5.462-1.57,9.04 1.333,16.666 5.92,2.596-.489,17.066 4,20.667 .567.11.629-.27.667-.68z" fill="#f8ed9b"></path>
	<path d="m41.333,264.57c-.82-.744-1.369-.58-1.333.667-4.959.423-2.653-1.246-5.333-1.333 1.214-1.897 3.896-2.326 5.333-4-2.639-11.769 1.825-16.769-7.333-20-1.445.112-.302-2.365-.667-3.334 5.532-2.077 6.771,1.519 8,4.667 .708,1.812 1.312,2.619 1.333,2-.206,5.96 1.995,13.73 0,21.32z" fill="#f8ed9b"></path>
	<path d="m238,239.91c.594.409 1.192.806 1.333,0 2.032.814-.975,2.544.667,3.333 1.65,1.2-3.03-.92-2-3.33z" fill="#f8ed9b"></path>
	<path d="m166,244.57c-1.138.64-1.461,2.095-2,3.334 2.543,2.884 1.354,2.904 2,7.333-1.517,2.523.614-4.093-2-2.667 .612-3.456-2.568-6.759-5.333-7.333 1.962-2.667 4.421.896 5.333-2 .594.41 1.192.806 1.333,0 1.05.25-.58,1.19.67,1.34z" fill="#f8ed9b"></path>
	<path d="m224,247.24c3.722-3.581 6.207-2.776 11.333-1.333-.91,2.954-2.857,1.148-4.666,0-4.267,1.52-6.461,5.395-4,8.666-4.14,1.91-1.264,10.531 2,12.667-9-1.46-5.06-9.51-4.66-20.01z" fill="#f8ed9b"></path>
	<path d="m236.67,269.24c-.594-.41-1.192-.806-1.334,0 1.06-7.039-.663-12.514 2.667-19.333 4.37,3.35-2.36,14.68-1.34,19.33z" fill="#f8ed9b"></path>
	<path d="m234.67,269.91c1.325.451-.659,2.215.666,2.666-1.355,1.556-2.826,3.393-4,3.334-.566.122-.629-.261-.666-.667v-1.333c.566-.123.629.26.666.666 .757-.126.37-.668 0-.666 1.3-2.12 3.7-1.64 3.33-4z" fill="#f8ed9b"></path>
	<path d="m42.667,284.57c6.283-.959 5.404,4.911 6.667,8.667 .506,1.507 5.265,4.233 3.333,6-3.952-.299-4.754-3.938-8-8-2.282-2.855-11.143-13.124-9.333-19.333 .593.518 1.505.717 2.667.666-2.004,4.97 5.094,7.97 4.666,11.99z" fill="#f8ed9b"></path>
	<path d="m104.67,299.91c.934-.236.058-1.174-.667-1.334 2.196-7.923 13.781-19.326 0-24 2.928-2.461 8.513,3.784 13.333,5.334-3.091-.762-2.991,2.509-5.333,3.333-3.384,8.955-5.462,17.243-10.667,23.333 1.502-3.475.831-6.214 3.333-6-.79-.76-.25-1.69.01-.66z" fill="#f8ed9b"></path>
	<path d="m223.33,280.57c-1.065.295-3.762-3.371-4-4.666h-3.333c-2.024,2.977-5.07,3.328-4.667,7.333-4.719-3.14 2.472-7.593 4.667-10 3.87.79 8.05,5.91 7.33,7.34z" fill="#f8ed9b"></path>
	<path d="m228.67,285.24c-4.246,1.302-4.08,9.288-10,12 .958,1.173.611,1.52-1.334,1.333 .568,2.597-5.516,9.155-8,6.667 4.001-5.139 7.325-4.629 6.667-12.667 2.404-1.318 4.751-2.357 6-2 4.808-3.866 4.647-7.44 6.667-12.666 3.91,4.21-1.64,3.26-.01,7.34z" fill="#f8ed9b"></path>
	<path d="m208,297.24c1.07-2.795-.782-4.792-1.333-8.667h2c-.129,2.309 2.239,6.812 2.666,9.334-.62,1.82-1.25-1.77-3.34-.66z" fill="#f8ed9b"></path>
	<path d="m68.667,291.91c-.624,1.414-4.481,3.022-3.333,4-.236,1.045-1.174-.584-1.333.666-.979-5.764 4.331-6.947 10.667-5.333-.108.775.147,1.187.667,1.333-1.315,3.1-3.735-1.29-6.668-.67z" fill="#f8ed9b"></path>
	<path d="m72.667,303.91c2.754,3.396 5.436-7.67 2.667-10.667 5.003,2.495 3.169,6.172 4,8.667-2.224.808-2.997,6.607-8,4 .235-.88 1.173-1.05 1.333-2z" fill="#f8ed9b"></path>
	<path d="m54.667,303.24c-1.483-.28-.522-3.537 0-4 3.369,5.776 9.453,7.659 11.333,13.333-3.209-.58-8.464-8.41-11.333-9.33z" fill="#f8ed9b"></path>
	<path d="m197.33,299.91c.168-1.158 3.532.19 4-.667-.704,2.133 4.124,5.072 0,6 1.34-3.26-2.02-4.48-4-5.33z" fill="#f8ed9b"></path>
	<path d="m88.667,310.57c1.408-.592 1.971-2.029 4-2 .295.594.585,1.192 1.333,1.334-2.102,1.797-1.856,6.248-5.333,5.333 1.543-1.47-.227-2.59 0-4.66z" fill="#f8ed9b"></path>
	<path d="m193.33,313.91c4.093-.112 6.834-2.341 12-4-3.276,5.164-10.975,8.737-16.666,11.333-.69-2.05 5.38-3.05 4.67-7.33z" fill="#f8ed9b"></path>
	<path d="m112,313.24c.603-.75 1.491.042 2.667-1.333 3.099,1.136 6.171,5.812 9.333,4.666 .949.815 1.515,2.545.667,3.334-5.125-2.888-13.338-6.505-13.333.666-.452,1.326-2.215-.659-2.667.667-1.476-.672 1.643-2.295.667-4.667 2.32.71 3.24-3.35 2.66-3.34z" fill="#f8ed9b"></path>
	<path d="m165.33,312.57c1.05.208-.603,4.104 1.334,2.667 .825,1.552.087,4.146-1.334,4.667-.122.566.261.629.667.666-2.717.586-2.019-5.21-2-8 .59.4 1.19.8 1.33-.01z" fill="#f8ed9b"></path>
	<path d="m159.33,313.24c.535,2.862.567,6.738-1.333,10.667-.77-2.07-.41-10.96 1.33-10.67z" fill="#f8ed9b"></path>
	<path d="m100.67,326.57c-3.608,4.13-11.839-2.02-16.67-1.33v-2c-2.115,1.409-4.873-.954-7.333-2.667 10.617-2.71 13.233,7.79 24.003,6z" fill="#f8ed9b"></path>
	<path d="m179.33,323.24c3.61,2.087-8.036,5.309-6.666,5.333-.945,1.944-6.62-.842-6.667,2 .199-2.673-3.538,2.015-8,.667 6.732-5.232 8.433-6.049 19.333-5.333 .75-2.29 1.68-.71 2.01-2.67z" fill="#f8ed9b"></path>
	<path d="m127.33,331.24c-.196,1.359-1.804,1.308-2,2.667-11.574-1.248-12.71-1.422-20.667-3.334-.572-3.96 2.08-.524 3.333-.666 2.83-.321 6.82-2.876 9.333-2.667 3.6.3 5.56,4.8 10.01,4z" fill="#f8ed9b"></path>
	<path d="m153.33,329.91v2.666c-7.741,1.602-13.256,4.148-21.333.667 7.61-7.93 14.03,3.06 21.33-3.34z" fill="#f8ed9b"></path>
	<path d="m52,333.91c1.045.235-.583,1.173.667,1.333-3.812.827-8.587,3.139-12.667,4.667 2.291-5.34 9.066-2.55 12-6z" fill="#f8ed9b"></path>
	<path d="m48,351.24c-.593-.41-1.192-.806-1.333,0-2.405-3.916 3.51-1.385 2.667-5.333 2.511-.124 3.036-1.196 4-1.334 .362,1.71-5.689,2.73-5.334,6.66z" fill="#f8ed9b"></path>
	<path d="m64.667,347.24c-.509,1.936-3.16,1.729-2.667,4.667-.875-.235-1.048-1.174-2-1.334 2.442-.23 1.368-3.97 4.667-3.34z" fill="#f8ed9b"></path>
</g>
</svg>
